<svg height="469pt" viewBox="0 -42 469.33333 469" width="469pt" xmlns="http://www.w3.org/2000/svg"><path d="m106.667969 341.5h170.664062c11.785157 0 21.335938 9.550781 21.335938 21.332031 0 11.785157-9.550781 21.335938-21.335938 21.335938h-170.664062c-11.785157 0-21.335938-9.550781-21.335938-21.335938 0-11.78125 9.550781-21.332031 21.335938-21.332031zm0 0" fill="#e18850"/><path d="m277.332031 42.832031v256h85.335938c58.910156 0 106.664062-47.753906 106.664062-106.664062v-42.667969c0-58.910156-47.753906-106.667969-106.664062-106.667969zm85.335938 192h-21.335938v-128h21.335938c23.5625 0 42.664062 19.105469 42.664062 42.667969v42.667969c0 23.5625-19.101562 42.664062-42.664062 42.664062zm0 0" fill="#f4ba93"/><path d="m405.332031 256.167969c0 11.78125-9.550781 21.332031-21.332031 21.332031s-21.332031-9.550781-21.332031-21.332031c0-11.785157 9.550781-21.335938 21.332031-21.335938s21.332031 9.550781 21.332031 21.335938zm0 0" fill="#e18850"/><path d="m426.667969 213.5c-11.78125 0-21.335938-9.550781-21.335938-21.332031v-42.667969c-.023437-23.554688-19.109375-42.644531-42.664062-42.667969-11.777344-.007812-21.320313-9.554687-21.320313-21.332031s9.542969-21.324219 21.320313-21.332031c47.105469.050781 85.277343 38.226562 85.332031 85.332031v42.667969c0 11.78125-9.550781 21.332031-21.332031 21.332031zm0 0" fill="#e18850"/><path d="m21.332031.167969h341.335938c11.78125 0 21.332031 9.550781 21.332031 21.332031v256c0 47.128906-38.203125 85.332031-85.332031 85.332031h-213.335938c-47.128906 0-85.332031-38.203125-85.332031-85.332031v-256c0-11.78125 9.550781-21.332031 21.332031-21.332031zm0 0" fill="#f9dcc9"/><path d="m298.667969 362.832031c47.128906 0 85.332031-38.203125 85.332031-85.332031v-256c0-11.78125-9.550781-21.332031-21.332031-21.332031h-85.335938c11.785157 0 21.335938 9.550781 21.335938 21.332031v256c0 47.128906-38.207031 85.332031-85.335938 85.332031zm0 0" fill="#f4ba93"/><path d="m64 21.5c11.78125 0 21.332031 9.550781 21.332031 21.332031v42.667969c0 11.78125-9.550781 21.332031-21.332031 21.332031s-21.332031-9.550781-21.332031-21.332031v-42.667969c0-11.78125 9.550781-21.332031 21.332031-21.332031zm0 0" fill="#fdf6f1"/><path d="m64 128.167969c11.78125 0 21.332031 9.550781 21.332031 21.332031v128c0 11.78125-9.550781 21.332031-21.332031 21.332031s-21.332031-9.550781-21.332031-21.332031v-128c0-11.78125 9.550781-21.332031 21.332031-21.332031zm0 0" fill="#fdf6f1"/><path d="m225.519531 137.316406c-33.238281-33.238281-79.96875-40.402344-104.371093-16-24.402344 24.402344-17.238282 71.128906 16 104.367188 33.238281 33.238281 79.964843 40.402344 104.367187 16s17.242187-71.128906-15.996094-104.367188zm0 0" fill="#953c1c"/><path d="m224 256.167969c-12.863281 0-32-8.523438-32-32v-21.335938c-.125-4.800781-2.074219-10.664062-10.667969-10.664062h-21.332031c-12.863281 0-32-8.523438-32-32 0-5.890625 4.777344-10.667969 10.667969-10.667969s10.664062 4.777344 10.664062 10.667969c0 8.59375 5.867188 10.539062 10.792969 10.664062h21.207031c23.480469 0 32 19.136719 32 32v21.335938c0 8.59375 5.867188 10.539062 10.792969 10.664062 5.851562.144531 10.511719 4.949219 10.46875 10.804688-.042969 5.820312-4.769531 10.519531-10.59375 10.53125zm0 0" fill="#3e190c"/><path d="m173.25 130.324219c-11.695312-3.550781-22.332031-2.617188-23.757812 2.082031-1.425782 4.699219 6.898437 11.386719 18.589843 14.9375 11.695313 3.546875 22.332031 2.617188 23.757813-2.085938 1.425781-4.699218-6.898438-11.386718-18.589844-14.933593zm0 0" fill="#b77b65"/></svg>