<svg height="469pt" viewBox="-64 0 469 469.33337" width="469pt" xmlns="http://www.w3.org/2000/svg"><path d="m258.667969 469.332031h-175.667969c-10.757812 0-19.835938-8.011719-21.167969-18.6875l-40.332031-322.644531v-85.332031h298.667969v85.332031l-40.332031 322.644531c-1.335938 10.675781-10.410157 18.6875-21.167969 18.6875zm0 0" fill="#f9dcc9"/><path d="m258.667969 469.332031c10.757812 0 19.832031-8.011719 21.167969-18.6875l40.332031-322.644531v-85.332031h-298.667969v85.332031h210.5c6.121094 0 11.945312 2.628906 15.992188 7.214844 4.050781 4.585937 5.9375 10.691406 5.175781 16.765625l-37.332031 298.664062c-1.335938 10.675781-10.410157 18.6875-21.167969 18.6875zm0 0" fill="#f6cbaf"/><path d="m298.832031 42.667969v21.332031h-256v-21.332031l15.4375-30.875c3.613281-7.226563 11-11.792969 19.082031-11.792969h186.964844c8.078125 0 15.464844 4.566406 19.078125 11.792969zm0 0" fill="#653430"/><path d="m283.394531 11.792969c-3.613281-7.226563-11-11.792969-19.078125-11.792969h-72.148437c11.785156-.0078125 21.347656 9.546875 21.347656 21.332031 0 11.789063-9.5625 21.34375-21.347656 21.335938v21.332031h106.664062v-21.332031zm0 0" fill="#3e190c"/><path d="m21.5 42.667969h298.667969c11.78125 0 21.332031 9.550781 21.332031 21.332031v42.667969c0 11.78125-9.550781 21.332031-21.332031 21.332031h-298.667969c-11.78125 0-21.332031-9.550781-21.332031-21.332031v-42.667969c0-11.78125 9.550781-21.332031 21.332031-21.332031zm0 0" fill="#7c534f"/><path d="m298.832031 362.667969h-256l-21.332031-170.667969h298.667969zm0 0" fill="#b77b65"/><path d="m213.5 362.667969h85.332031l21.335938-170.667969h-85.335938zm0 0" fill="#aa644a"/><path d="m320.167969 42.667969h-106.667969c11.78125 0 21.332031 9.550781 21.332031 21.332031v42.667969c0 11.78125-9.550781 21.332031-21.332031 21.332031h106.667969c11.78125 0 21.332031-9.550781 21.332031-21.332031v-42.667969c0-11.78125-9.550781-21.332031-21.332031-21.332031zm0 0" fill="#653430"/><path d="m64.167969 42.667969c11.78125 0 21.332031 9.550781 21.332031 21.332031v42.667969c0 11.78125-9.550781 21.332031-21.332031 21.332031-11.785157 0-21.335938-9.550781-21.335938-21.332031v-42.667969c0-11.78125 9.550781-21.332031 21.335938-21.332031zm0 0" fill="#93716e"/></svg>