<svg height="426.66666pt" viewBox="0 0 426.66666 426.66666" width="426.66666pt" xmlns="http://www.w3.org/2000/svg"><path d="m21.332031 341.3125s23.0625 59.464844 79.007813 83.804688c6.375 2.773437 13.828125 1.683593 19.609375-2.171876l19.882812-17.613281c8.003907-5.335937 11.445313-15.367187 8.40625-24.496093l-20.238281-60.835938zm0 0" fill="#c35422"/><path d="m0 277.304688c0 30.660156 9.800781 65.726562 20.007812 84.253906 10.347657 19.066406 33.3125 27.390625 53.472657 19.386718l51.375-20.550781c14.371093-5.75 24.078125-18.894531 26.390625-34.195312 8.296875-54.910157 40.753906-112.867188 40.753906-112.867188l-170.667969-64.027343s-21.332031 42.667968-21.332031 128zm0 0" fill="#e8a073"/><path d="m341.3125 21.332031s59.464844 23.0625 83.804688 79.007813c2.773437 6.375 1.683593 13.828125-2.171876 19.609375l-17.613281 19.882812c-5.335937 8.003907-15.367187 11.445313-24.496093 8.40625l-60.835938-20.238281zm0 0" fill="#c35422"/><path d="m277.304688 0c30.660156 0 65.726562 9.800781 84.253906 20.007812 19.066406 10.347657 27.390625 33.3125 19.386718 53.472657l-20.550781 51.375c-5.75 14.371093-18.894531 24.078125-34.195312 26.390625-54.910157 8.296875-112.867188 40.753906-112.867188 40.753906l-64.027343-170.667969s42.667968-21.332031 128-21.332031zm0 0" fill="#e8a073"/><path d="m212.171875 257.160156 44.988281-44.988281c12.917969-12.914063 20.171875-30.433594 20.171875-48.703125 0-9.324219-1.894531-18.554688-5.566406-27.128906l-47.351563-110.480469c-6.722656-15.6875-22.148437-25.859375-39.214843-25.859375-102.28125 0-185.199219 82.917969-185.199219 185.199219 0 17.066406 10.171875 32.492187 25.859375 39.214843l110.480469 47.351563c8.574218 3.671875 17.804687 5.566406 27.128906 5.566406 18.269531 0 35.789062-7.253906 48.703125-20.171875zm0 0" fill="#e18850"/><path d="m197.816406 184.542969c15.316406-15.320313 19.765625-38.421875 11.234375-58.332031l-36.421875-84.984376c-5.171875-12.070312-17.039062-19.894531-30.167968-19.894531-27.324219-.011719-54.070313 7.882813-77.011719 22.726563-37.242188 31.542968-60.480469 76.546875-64.644531 125.171875 1.734374 10.957031 8.925781 20.277343 19.085937 24.730469l84.984375 36.421874c19.914062 8.535157 43.015625 4.085938 58.335938-11.234374zm0 0" fill="#c35422"/><path d="m46.851562 170.667969c-6.574218.007812-12.78125-3.015625-16.828124-8.195313-4.046876-5.183594-5.476563-11.9375-3.878907-18.3125.601563-2.449218 15.625-60.511718 68.226563-97.59375 9.632812-6.796875 22.945312-4.492187 29.738281 5.140625 6.789063 9.632813 4.480469 22.945313-5.152344 29.734375-39.148437 27.59375-51.3125 72.625-51.4375 73.070313-2.367187 9.488281-10.890625 16.148437-20.667969 16.15625zm0 0" fill="#e18850"/><path d="m28.492188 350.851562 3.488281 3.867188c6.550781 7.265625 16.234375 9.804688 25.019531 6.554688l26.4375-9.777344c13.871094-5.128906 23.230469-19.535156 23.230469-35.761719 0-12.601563-5.679688-24.371094-15.128907-31.363281l-32.195312-23.816406c-9.695312-7.171876-22.609375-5.753907-30.847656 3.390624-4.664063 5.296876-7.214844 12.125-7.164063 19.183594v48.539063c-.050781 7.058593 2.5 13.886719 7.160157 19.183593zm0 0" fill="#db7230"/><path d="m350.851562 28.492188 3.867188 3.488281c7.265625 6.550781 9.804688 16.234375 6.554688 25.019531l-9.777344 26.4375c-5.128906 13.871094-19.535156 23.230469-35.761719 23.230469-12.601563 0-24.371094-5.679688-31.363281-15.128907l-23.816406-32.195312c-7.171876-9.695312-5.753907-22.609375 3.390624-30.847656 5.296876-4.664063 12.125-7.214844 19.183594-7.164063h48.539063c7.058593-.050781 13.886719 2.5 19.183593 7.160157zm0 0" fill="#db7230"/><g fill="#f4ba93"><path d="m170.667969 74.667969c0 5.890625-4.777344 10.664062-10.667969 10.664062s-10.667969-4.773437-10.667969-10.664062 4.777344-10.667969 10.667969-10.667969 10.667969 4.777344 10.667969 10.667969zm0 0"/><path d="m341.332031 53.332031c0 5.890625-4.773437 10.667969-10.664062 10.667969s-10.667969-4.777344-10.667969-10.667969 4.777344-10.664062 10.667969-10.664062 10.664062 4.773437 10.664062 10.664062zm0 0"/><path d="m341.332031 96c0 5.890625-4.773437 10.667969-10.664062 10.667969s-10.667969-4.777344-10.667969-10.667969 4.777344-10.667969 10.667969-10.667969 10.664062 4.777344 10.664062 10.667969zm0 0"/><path d="m85.332031 288c0 5.890625-4.773437 10.667969-10.664062 10.667969s-10.667969-4.777344-10.667969-10.667969 4.777344-10.667969 10.667969-10.667969 10.664062 4.777344 10.664062 10.667969zm0 0"/><path d="m64 330.667969c0 5.890625-4.777344 10.664062-10.667969 10.664062s-10.664062-4.773437-10.664062-10.664062 4.773437-10.667969 10.664062-10.667969 10.667969 4.777344 10.667969 10.667969zm0 0"/><path d="m298.667969 53.332031c0 5.890625-4.777344 10.667969-10.667969 10.667969s-10.667969-4.777344-10.667969-10.667969 4.777344-10.664062 10.667969-10.664062 10.667969 4.773437 10.667969 10.664062zm0 0"/><path d="m42.667969 138.667969c0 5.890625-4.777344 10.664062-10.667969 10.664062s-10.667969-4.773437-10.667969-10.664062 4.777344-10.667969 10.667969-10.667969 10.667969 4.777344 10.667969 10.667969zm0 0"/><path d="m117.332031 64c0 5.890625-4.773437 10.667969-10.664062 10.667969s-10.667969-4.777344-10.667969-10.667969 4.777344-10.667969 10.667969-10.667969 10.664062 4.777344 10.664062 10.667969zm0 0"/><path d="m85.332031 96c0 5.890625-4.773437 10.667969-10.664062 10.667969s-10.667969-4.777344-10.667969-10.667969 4.777344-10.667969 10.667969-10.667969 10.664062 4.777344 10.664062 10.667969zm0 0"/><path d="m149.332031 138.667969c0 5.890625-4.773437 10.664062-10.664062 10.664062s-10.667969-4.773437-10.667969-10.664062 4.777344-10.667969 10.667969-10.667969 10.664062 4.777344 10.664062 10.667969zm0 0"/><path d="m106.667969 160c0 5.890625-4.777344 10.667969-10.667969 10.667969s-10.667969-4.777344-10.667969-10.667969 4.777344-10.667969 10.667969-10.667969 10.667969 4.777344 10.667969 10.667969zm0 0"/></g></svg>