<svg height="426.66666pt" viewBox="0 0 426.66666 426.66666" width="426.66666pt" xmlns="http://www.w3.org/2000/svg"><path d="m213.332031 0c-117.820312 0-213.332031 95.511719-213.332031 213.332031 0 117.820313 95.511719 213.335938 213.332031 213.335938 117.820313 0 213.335938-95.515625 213.335938-213.335938 0-117.820312-95.515625-213.332031-213.335938-213.332031zm0 298.667969c-47.128906 0-85.332031-38.207031-85.332031-85.335938 0-47.128906 38.203125-85.332031 85.332031-85.332031 47.128907 0 85.335938 38.203125 85.335938 85.332031 0 47.128907-38.207031 85.335938-85.335938 85.335938zm0 0" fill="#db7230"/><path d="m213.332031 0c-117.820312 0-213.332031 95.511719-213.332031 213.332031 0 117.820313 95.511719 213.335938 213.332031 213.335938 117.820313 0 213.335938-95.515625 213.335938-213.335938 0-117.820312-95.515625-213.332031-213.335938-213.332031zm0 298.667969c-47.128906 0-85.332031-38.207031-85.332031-85.335938 0-47.128906 38.203125-85.332031 85.332031-85.332031 47.128907 0 85.335938 38.203125 85.335938 85.332031 0 47.128907-38.207031 85.335938-85.335938 85.335938zm0 0" fill="#c35422"/><path d="m192 21.332031c-106.039062 0-192 85.960938-192 192 0 106.039063 85.960938 192 192 192s192-85.960937 192-192c0-106.039062-85.960938-192-192-192zm21.332031 277.335938c-47.128906 0-85.332031-38.207031-85.332031-85.335938 0-47.128906 38.203125-85.332031 85.332031-85.332031 47.128907 0 85.335938 38.203125 85.335938 85.332031 0 47.128907-38.207031 85.335938-85.335938 85.335938zm0 0" fill="#e18850"/><path d="m382.957031 311.277344c8.3125-14.363282 7.785157-32.820313 12.167969-49.222656 4.238281-15.855469 14.046875-31.53125 14.046875-48.722657 0-17.191406-9.808594-32.863281-14.046875-48.714843-4.382812-16.40625-3.851562-34.855469-12.160156-49.21875-8.429688-14.566407-24.753906-23.285157-36.578125-35.109376-11.824219-11.824218-20.542969-28.152343-35.109375-36.582031-14.363282-8.3125-32.820313-7.78125-49.222656-12.167969-15.855469-4.238281-31.53125-14.046874-48.722657-14.046874-17.191406 0-32.863281 9.808593-48.714843 14.046874-16.402344 4.386719-34.855469 3.855469-49.21875 12.164063-14.566407 8.425781-23.285157 24.753906-35.109376 36.574219-11.824218 11.824218-28.152343 20.542968-36.582031 35.113281-8.308593 14.363281-7.78125 32.816406-12.167969 49.222656-4.238281 15.855469-14.046874 31.527344-14.046874 48.71875 0 17.191407 9.808593 32.863281 14.046874 48.71875 4.386719 16.402344 3.855469 34.855469 12.164063 49.214844 8.425781 14.570313 24.753906 23.289063 36.578125 35.113281 11.820312 11.820313 20.539062 28.148438 35.109375 36.578125 14.363281 8.3125 32.816406 7.78125 49.222656 12.167969 15.855469 4.238281 31.527344 14.046875 48.71875 14.046875 17.191407 0 32.863281-9.808594 48.71875-14.046875 16.402344-4.382812 34.855469-3.851562 49.214844-12.160156 14.570313-8.429688 23.289063-24.753906 35.113281-36.578125 11.824219-11.824219 28.148438-20.542969 36.578125-35.109375zm-169.625-12.609375c-47.128906 0-85.332031-38.207031-85.332031-85.335938 0-47.128906 38.203125-85.332031 85.332031-85.332031 47.128907 0 85.335938 38.203125 85.335938 85.332031 0 47.128907-38.207031 85.335938-85.335938 85.335938zm0 0" fill="#b80900"/><path d="m362.667969 213.332031c0-99.386719-75.519531-181.136719-172.304688-190.996093-8.699219 3.109374-17.207031 6.921874-25.746093 9.203124-16.402344 4.386719-34.855469 3.855469-49.21875 12.164063-14.566407 8.425781-23.285157 24.753906-35.109376 36.574219-11.824218 11.824218-28.152343 20.542968-36.582031 35.113281-8.308593 14.363281-7.78125 32.816406-12.167969 49.222656-4.238281 15.855469-14.046874 31.527344-14.046874 48.71875 0 17.191407 9.808593 32.863281 14.046874 48.71875 4.386719 16.402344 3.855469 34.855469 12.164063 49.214844 8.425781 14.570313 24.753906 23.289063 36.578125 35.113281 11.820312 11.820313 20.539062 28.148438 35.109375 36.578125 14.363281 8.3125 32.816406 7.78125 49.222656 12.167969 8.542969 2.28125 17.050781 6.09375 25.753907 9.207031 96.785156-9.863281 172.300781-91.613281 172.300781-191zm-234.667969 0c0-47.128906 38.203125-85.332031 85.332031-85.332031 47.128907 0 85.335938 38.203125 85.335938 85.332031 0 47.128907-38.207031 85.335938-85.335938 85.335938-47.128906 0-85.332031-38.207031-85.332031-85.335938zm0 0" fill="#e92c24"/><path d="m298.667969 224c0-1.828125-.4375-3.53125-.539063-5.332031-2.804687 44.59375-39.492187 80-84.796875 80-47.128906 0-85.332031-38.207031-85.332031-85.335938 0-45.300781 35.402344-81.988281 80-84.792969-1.800781-.101562-3.507812-.539062-5.332031-.539062-53.019531 0-96 42.980469-96 96s42.980469 96 96 96 96-42.980469 96-96zm0 0" fill="#b80900"/><path d="m136.355469 362.667969c-3.871094.003906-7.671875-1.054688-10.980469-3.0625-51.507812-30.6875-82.960938-86.316407-82.707031-146.273438.007812-11.773437 9.554687-21.316406 21.332031-21.316406s21.324219 9.542969 21.332031 21.316406c-.1875 44.976563 23.40625 86.703125 62.042969 109.730469 8.210938 4.941406 12.117188 14.757812 9.550781 23.992188-2.570312 9.234374-10.984375 15.621093-20.570312 15.613281zm0 0" fill="#f17d77"/><path d="m78.355469 170.667969c-7.316407-.003907-14.121094-3.753907-18.027344-9.941407s-4.367187-13.945312-1.222656-20.550781c12.769531-26.839843 32.308593-49.898437 56.6875-66.90625 9.664062-6.734375 22.957031-4.359375 29.695312 5.300781 6.742188 9.660157 4.378907 22.957032-5.28125 29.699219-18.304687 12.761719-32.972656 30.070313-42.5625 50.21875-3.535156 7.445313-11.046875 12.1875-19.289062 12.179688zm0 0" fill="#f17d77"/><g fill="#3e190c"><path d="m266.667969 106.667969c-4.316407-.003907-8.203125-2.601563-9.855469-6.585938-1.648438-3.984375-.738281-8.574219 2.3125-11.625l21.332031-21.332031c4.167969-4.164062 10.917969-4.164062 15.085938 0 4.164062 4.164062 4.164062 10.917969 0 15.082031l-21.335938 21.335938c-1.996093 2.003906-4.710937 3.128906-7.539062 3.125zm0 0"/><path d="m202.667969 85.332031c-2.832031.003907-5.542969-1.121093-7.546875-3.121093-2-2-3.121094-4.714844-3.121094-7.542969v-21.335938c-.003906-5.894531 4.773438-10.675781 10.667969-10.675781s10.671875 4.78125 10.664062 10.675781v21.335938c.003907 2.828125-1.121093 5.542969-3.121093 7.542969s-4.714844 3.125-7.542969 3.121093zm0 0"/><path d="m352 170.667969h-21.332031c-5.886719-.007813-10.65625-4.78125-10.65625-10.667969s4.769531-10.660156 10.65625-10.667969h21.332031c5.886719.007813 10.65625 4.78125 10.65625 10.667969s-4.769531 10.660156-10.65625 10.667969zm0 0"/><path d="m352 256c-4.3125 0-8.203125-2.597656-9.851562-6.585938-1.652344-3.984374-.738282-8.570312 2.308593-11.621093l21.335938-21.335938c4.164062-4.167969 10.917969-4.167969 15.085937-.003906 4.167969 4.167969 4.164063 10.925781-.003906 15.089844l-21.332031 21.332031c-2 2.003906-4.714844 3.128906-7.542969 3.125zm0 0"/><path d="m224 362.667969c-2.828125.003906-5.542969-1.121094-7.542969-3.125l-21.332031-21.335938c-4.164062-4.164062-4.164062-10.917969 0-15.082031s10.917969-4.164062 15.082031 0l21.335938 21.332031c3.046875 3.050781 3.960937 7.640625 2.308593 11.625-1.648437 3.984375-5.539062 6.582031-9.851562 6.585938zm0 0"/><path d="m288 362.667969c-2.828125 0-5.542969-1.121094-7.542969-3.125-2.003906-2-3.125-4.714844-3.125-7.542969v-21.332031c.007813-5.886719 4.78125-10.65625 10.667969-10.65625s10.660156 4.769531 10.667969 10.65625v21.332031c0 2.828125-1.121094 5.542969-3.125 7.542969-2 2.003906-4.714844 3.125-7.542969 3.125zm0 0"/></g><path d="m74.667969 149.332031c-2.832031.003907-5.542969-1.121093-7.546875-3.121093-2-2-3.121094-4.714844-3.121094-7.542969v-21.335938c-.003906-5.894531 4.773438-10.675781 10.667969-10.675781s10.671875 4.78125 10.664062 10.675781v21.335938c.003907 2.828125-1.121093 5.542969-3.121093 7.542969s-4.714844 3.125-7.542969 3.121093zm0 0" fill="#653430"/><path d="m117.332031 106.667969c-4.3125-.003907-8.203125-2.601563-9.851562-6.585938-1.652344-3.984375-.738281-8.574219 2.3125-11.625l21.332031-21.332031c4.164062-4.164062 10.917969-4.164062 15.082031 0 4.167969 4.164062 4.167969 10.917969 0 15.082031l-21.332031 21.335938c-1.996094 2.003906-4.710938 3.128906-7.542969 3.125zm0 0" fill="#653430"/><path d="m181.332031 128h-21.332031c-5.890625 0-10.667969-4.777344-10.667969-10.667969s4.777344-10.664062 10.667969-10.664062h21.332031c5.890625 0 10.667969 4.773437 10.667969 10.664062s-4.777344 10.667969-10.667969 10.667969zm0 0" fill="#3e190c"/><path d="m74.667969 298.667969c-4.316407-.003907-8.203125-2.601563-9.855469-6.585938-1.648438-3.984375-.738281-8.574219 2.3125-11.625l21.332031-21.332031c4.167969-4.164062 10.917969-4.164062 15.085938 0 4.164062 4.164062 4.164062 10.917969 0 15.082031l-21.335938 21.335938c-1.996093 2.003906-4.710937 3.128906-7.539062 3.125zm0 0" fill="#653430"/><path d="m138.667969 341.332031h-21.335938c-5.894531.007813-10.675781-4.769531-10.675781-10.664062s4.78125-10.671875 10.675781-10.667969h21.335938c5.894531-.003906 10.675781 4.773438 10.675781 10.667969s-4.78125 10.671875-10.675781 10.664062zm0 0" fill="#653430"/><path d="m32 213.332031c-4.3125 0-8.203125-2.597656-9.851562-6.582031-1.652344-3.988281-.738282-8.574219 2.308593-11.625l21.335938-21.332031c4.164062-4.167969 10.917969-4.167969 15.082031 0 4.164062 4.164062 4.164062 10.917969 0 15.082031l-21.332031 21.332031c-2 2.003907-4.714844 3.128907-7.542969 3.125zm0 0" fill="#3e190c"/><path d="m330.667969 298.667969c-2.832031.003906-5.546875-1.121094-7.542969-3.125l-21.332031-21.335938c-4.164063-4.164062-4.160157-10.914062.003906-15.078125 4.164063-4.164062 10.914063-4.164062 15.078125-.003906l21.332031 21.332031c3.050781 3.050781 3.964844 7.640625 2.3125 11.625-1.652343 3.984375-5.539062 6.582031-9.851562 6.585938zm0 0" fill="#3e190c"/></svg>