<svg height="469pt" viewBox="-43 0 469 469.33503" width="469pt" xmlns="http://www.w3.org/2000/svg"><path d="m42.832031 128h42.667969v-42.667969c0-11.78125 9.550781-21.332031 21.332031-21.332031h42.667969v-42.667969c0-11.78125 9.550781-21.332031 21.332031-21.332031h42.851563c11.785156 0 21.335937 9.550781 21.335937 21.332031v21.335938h42.480469c11.78125 0 21.332031 9.550781 21.332031 21.332031v42.667969h42.667969c11.78125 0 21.332031 9.550781 21.332031 21.332031v192h-341.332031v-170.667969c0-11.78125 9.550781-21.332031 21.332031-21.332031zm0 0" fill="#c35422"/><g fill="#953c1c"><path d="m128.167969 85.332031c11.78125 0 21.332031 9.550781 21.332031 21.335938v128c0 11.78125-9.550781 21.332031-21.332031 21.332031-11.785157 0-21.335938-9.550781-21.335938-21.332031v-128c0-11.785157 9.550781-21.335938 21.335938-21.335938zm0 0"/><path d="m341.5 128c11.78125 0 21.332031 9.550781 21.332031 21.332031v85.335938c0 11.78125-9.550781 21.332031-21.332031 21.332031s-21.332031-9.550781-21.332031-21.332031v-85.335938c0-11.78125 9.550781-21.332031 21.332031-21.332031zm0 0"/><path d="m277.5 42.667969c11.78125 0 21.332031 9.550781 21.332031 21.332031v85.332031c0 11.785157-9.550781 21.335938-21.332031 21.335938s-21.332031-9.550781-21.332031-21.335938v-85.332031c0-11.78125 9.550781-21.332031 21.332031-21.332031zm0 0"/></g><path d="m170.832031 21.332031h21.335938c11.78125 0 21.332031 9.550781 21.332031 21.335938v256c0 11.78125-9.550781 21.332031-21.332031 21.332031h-21.335938c-11.78125 0-21.332031-9.550781-21.332031-21.332031v-256c0-11.785157 9.550781-21.335938 21.332031-21.335938zm0 0" fill="#db7230"/><path d="m170.832031 42.667969c11.785157 0 21.335938 9.550781 21.335938 21.332031v42.667969c0 11.78125-9.550781 21.332031-21.335938 21.332031-11.78125 0-21.332031-9.550781-21.332031-21.332031v-42.667969c0-11.78125 9.550781-21.332031 21.332031-21.332031zm0 0" fill="#e18850"/><path d="m64.167969 42.667969h21.332031c11.78125 0 21.332031 9.550781 21.332031 21.332031v213.332031c0 11.785157-9.550781 21.335938-21.332031 21.335938h-21.332031c-11.785157 0-21.335938-9.550781-21.335938-21.335938v-213.332031c0-11.78125 9.550781-21.332031 21.335938-21.332031zm0 0" fill="#e18850"/><path d="m64.167969 128c11.78125 0 21.332031 9.550781 21.332031 21.332031 0 11.785157-9.550781 21.335938-21.332031 21.335938-11.785157 0-21.335938-9.550781-21.335938-21.335938 0-11.78125 9.550781-21.332031 21.335938-21.332031zm0 0" fill="#e8a073"/><path d="m64.167969 42.667969c11.78125 0 21.332031 9.550781 21.332031 21.332031v21.332031c0 11.785157-9.550781 21.335938-21.332031 21.335938-11.785157 0-21.335938-9.550781-21.335938-21.335938v-21.332031c0-11.78125 9.550781-21.332031 21.335938-21.332031zm0 0" fill="#e8a073"/><path d="m234.832031 21.332031h21.335938c11.78125 0 21.332031 9.550781 21.332031 21.335938v213.332031c0 11.78125-9.550781 21.332031-21.332031 21.332031h-21.335938c-11.78125 0-21.332031-9.550781-21.332031-21.332031v-213.332031c0-11.785157 9.550781-21.335938 21.332031-21.335938zm0 0" fill="#e18850"/><path d="m149.5 85.332031h21.332031c11.785157 0 21.335938 9.550781 21.335938 21.335938v213.332031c0 11.78125-9.550781 21.332031-21.335938 21.332031h-21.332031c-11.78125 0-21.332031-9.550781-21.332031-21.332031v-213.332031c0-11.785157 9.550781-21.335938 21.332031-21.335938zm0 0" fill="#e8a073"/><path d="m149.5 106.667969c11.78125 0 21.332031 9.550781 21.332031 21.332031v42.667969c0 11.78125-9.550781 21.332031-21.332031 21.332031s-21.332031-9.550781-21.332031-21.332031v-42.667969c0-11.78125 9.550781-21.332031 21.332031-21.332031zm0 0" fill="#f4ba93"/><path d="m298.832031 85.332031h21.335938c11.78125 0 21.332031 9.550781 21.332031 21.335938v213.332031c0 11.78125-9.550781 21.332031-21.332031 21.332031h-21.335938c-11.78125 0-21.332031-9.550781-21.332031-21.332031v-213.332031c0-11.785157 9.550781-21.335938 21.332031-21.335938zm0 0" fill="#e8a073"/><path d="m298.832031 106.667969c11.785157 0 21.335938 9.550781 21.335938 21.332031v21.332031c0 11.785157-9.550781 21.335938-21.335938 21.335938-11.78125 0-21.332031-9.550781-21.332031-21.335938v-21.332031c0-11.78125 9.550781-21.332031 21.332031-21.332031zm0 0" fill="#f4ba93"/><path d="m334.109375 456.785156-20.558594 10.277344c-7.28125 3.675781-16.023437 2.84375-22.476562-2.144531-16.148438-12.433594-53.144531-34.238281-98.90625-34.238281-45.914063 0-79.339844 21.503906-95.425781 33.914062-6.375 4.929688-15 5.804688-22.238282 2.257812l-21.707031-10.523437c-6.164063-2.988281-10.515625-8.753906-11.703125-15.5l-40.601562-220.929687c-1.457032-8.265626 2.066406-16.613282 9.003906-21.335938l35.496094-24.160156c8.476562-5.855469 19.945312-4.742188 27.140624 2.640625 18.117188 18.757812 59.820313 57.625 120.035157 57.625 60.0625 0 101.152343-38.6875 118.9375-57.464844 7.121093-7.460937 18.582031-8.691406 27.125-2.917969l36.433593 24.277344c7.082032 4.722656 10.679688 13.199219 9.15625 21.570312l-38.261718 221.386719c-1.199219 6.605469-5.441406 12.261719-11.449219 15.265625zm0 0" fill="#cc1911"/><path d="m330.113281 171.1875c-6.945312-1.351562-14.101562.910156-19.007812 6.011719-3.296875 3.484375-7.398438 7.652343-12.269531 12.128906-21.40625 19.667969-57.742188 45.339844-106.667969 45.339844-60.214844 0-101.917969-38.867188-120.035157-57.625-7.195312-7.382813-18.660156-8.496094-27.140624-2.640625l-35.496094 24.160156c-6.9375 4.722656-10.460938 13.070312-9.003906 21.335938l40.601562 220.929687c1.1875 6.746094 5.539062 12.511719 11.703125 15.496094l21.707031 10.527343c7.210938 3.550782 15.816406 2.691407 22.183594-2.214843 16.0625-12.402344 49.515625-33.957031 95.480469-33.957031 24.285156 0 46.011719 6.125 63.488281 13.738281 12.480469 5.433593 26.699219-2.609375 29.066406-16.015625zm0 0" fill="#e92c24"/><path d="m85.480469 341.332031c-10.160157-.011719-18.902344-7.183593-20.898438-17.144531l-21.332031-106.667969c-2.308594-11.550781 5.179688-22.785156 16.730469-25.097656s22.789062 5.175781 25.101562 16.722656l21.335938 106.667969c2.3125 11.550781-5.179688 22.792969-16.730469 25.105469-1.386719.273437-2.796875.414062-4.207031.414062zm0 0" fill="#f56c66"/><path d="m128.167969 405.332031c0 11.785157-9.550781 21.335938-21.335938 21.335938-11.78125 0-21.332031-9.550781-21.332031-21.335938 0-11.78125 9.550781-21.332031 21.332031-21.332031 11.785157 0 21.335938 9.550781 21.335938 21.332031zm0 0" fill="#f56c66"/><path d="m234.832031 42.667969c11.785157 0 21.335938 9.550781 21.335938 21.332031v64c0 11.78125-9.550781 21.332031-21.335938 21.332031-11.78125 0-21.332031-9.550781-21.332031-21.332031v-64c0-11.78125 9.550781-21.332031 21.332031-21.332031zm0 0" fill="#e8a073"/><path d="m234.832031 170.667969c11.785157 0 21.335938 9.550781 21.335938 21.332031s-9.550781 21.332031-21.335938 21.332031c-11.78125 0-21.332031-9.550781-21.332031-21.332031s9.550781-21.332031 21.332031-21.332031zm0 0" fill="#e8a073"/></svg>