<svg height="426pt" viewBox="0 0 426 426.66668" width="426pt" xmlns="http://www.w3.org/2000/svg"><path d="m43 192h341.332031c11.785157 0 21.335938 9.550781 21.335938 21.332031 0 11.785157-9.550781 21.335938-21.335938 21.335938h-341.332031c-11.78125 0-21.332031-9.550781-21.332031-21.335938 0-11.78125 9.550781-21.332031 21.332031-21.332031zm0 0" fill="#b80900"/><path d="m192.332031 213.332031c0-11.78125-9.550781-21.332031-21.332031-21.332031h-128c-11.78125 0-21.332031 9.550781-21.332031 21.332031 0 11.785157 9.550781 21.335938 21.332031 21.335938h128c11.78125 0 21.332031-9.550781 21.332031-21.335938zm0 0" fill="#cc1911"/><path d="m171 0h85.332031c82.476563 0 149.335938 66.859375 149.335938 149.332031 0 11.785157-9.550781 21.335938-21.335938 21.335938h-341.332031c-11.78125 0-21.332031-9.550781-21.332031-21.335938 0-82.472656 66.859375-149.332031 149.332031-149.332031zm0 0" fill="#e18850"/><path d="m43 234.667969h341.332031c23.566407 0 42.667969 19.101562 42.667969 42.664062 0 23.566407-19.101562 42.667969-42.667969 42.667969h-341.332031c-23.5625 0-42.667969-19.101562-42.667969-42.667969 0-23.5625 19.105469-42.664062 42.667969-42.664062zm0 0" fill="#3e190c"/><path d="m320.332031 277.332031c0-23.5625-19.101562-42.664062-42.664062-42.664062h-234.667969c-23.5625 0-42.667969 19.101562-42.667969 42.664062 0 23.566407 19.105469 42.667969 42.667969 42.667969h234.667969c23.5625 0 42.664062-19.101562 42.664062-42.667969zm0 0" fill="#653430"/><path d="m43 234.667969h21.332031c11.785157 0 21.335938 9.550781 21.335938 21.332031s-9.550781 21.332031-21.335938 21.332031h-21.332031c-11.78125 0-21.332031-9.550781-21.332031-21.332031s9.550781-21.332031 21.332031-21.332031zm0 0" fill="#7c534f"/><path d="m43 320h341.332031c11.785157 0 21.335938 9.550781 21.335938 21.332031 0 47.128907-38.207031 85.335938-85.335938 85.335938h-213.332031c-47.128906 0-85.332031-38.207031-85.332031-85.335938 0-11.78125 9.550781-21.332031 21.332031-21.332031zm0 0" fill="#e18850"/><path d="m213.667969 213.332031c-42.667969 0-42.667969 21.335938-85.335938 21.335938-42.664062 0-64-21.335938-106.664062-21.335938 0 0-21.335938.023438-21.335938-21.332031s21.335938-21.332031 21.335938-21.332031h384c21.332031 0 21.332031 21.332031 21.332031 21.332031s0 21.332031-21.332031 21.332031c-42.667969 0-64 21.335938-106.667969 21.335938s-42.667969-21.335938-85.332031-21.335938zm0 0" fill="#6ccd6c"/><path d="m235 213.332031c21.332031 0 21.332031-21.332031 21.332031-21.332031s0-21.332031-21.332031-21.332031h-213.332031s-21.335938-.023438-21.335938 21.332031 21.335938 21.332031 21.335938 21.332031c42.664062 0 64 21.335938 106.664062 21.335938 42.667969 0 42.667969-21.335938 85.335938-21.335938zm0 0" fill="#86db74"/><path d="m43 234.667969s0 21.332031 21.332031 21.332031c42.667969 0 42.667969 21.332031 106.667969 21.332031s64 21.335938 106.667969 21.335938c42.664062 0 42.664062-42.667969 85.332031-42.667969 21.332031 0 21.332031-21.332031 21.332031-21.332031zm0 0" fill="#f6cbaf"/><path d="m107 64h128c23.5625 0 42.667969 19.101562 42.667969 42.667969 0 23.5625-19.105469 42.664062-42.667969 42.664062h-128c-23.5625 0-42.667969-19.101562-42.667969-42.664062 0-23.566407 19.105469-42.667969 42.667969-42.667969zm0 0" fill="#e8a073"/><path d="m149.667969 64h21.332031c23.5625 0 42.667969 19.101562 42.667969 42.667969 0 23.5625-19.105469 42.664062-42.667969 42.664062h-21.332031c-23.566407 0-42.667969-19.101562-42.667969-42.664062 0-23.566407 19.101562-42.667969 42.667969-42.667969zm0 0" fill="#f4ba93"/><path d="m96.332031 341.332031h128c17.675781 0 32 14.328125 32 32 0 17.675781-14.324219 32-32 32h-128c-17.671875 0-32-14.324219-32-32 0-17.671875 14.328125-32 32-32zm0 0" fill="#e8a073"/><path d="m139 341.332031h42.667969c17.671875 0 32 14.328125 32 32 0 17.675781-14.328125 32-32 32h-42.667969c-17.671875 0-32-14.324219-32-32 0-17.671875 14.328125-32 32-32zm0 0" fill="#f4ba93"/><g fill="#f9dcc9"><path d="m235 10.667969c0-5.890625-9.550781-10.667969-21.332031-10.667969-11.785157 0-21.335938 4.777344-21.335938 10.667969s9.550781 10.664062 21.335938 10.664062c11.78125 0 21.332031-4.773437 21.332031-10.664062zm0 0"/><path d="m256.332031 53.332031c0-5.890625-9.550781-10.664062-21.332031-10.664062s-21.332031 4.773437-21.332031 10.664062 9.550781 10.667969 21.332031 10.667969 21.332031-4.777344 21.332031-10.667969zm0 0"/><path d="m171 32c0-5.890625-9.550781-10.667969-21.332031-10.667969-11.785157 0-21.335938 4.777344-21.335938 10.667969s9.550781 10.667969 21.335938 10.667969c11.78125 0 21.332031-4.777344 21.332031-10.667969zm0 0"/><path d="m320.332031 32c0-5.890625-9.550781-10.667969-21.332031-10.667969s-21.332031 4.777344-21.332031 10.667969 9.550781 10.667969 21.332031 10.667969 21.332031-4.777344 21.332031-10.667969zm0 0"/></g><path d="m149.667969 213.332031c0-5.890625-9.550781-10.664062-21.335938-10.664062-11.78125 0-21.332031 4.773437-21.332031 10.664062s9.550781 10.667969 21.332031 10.667969c11.785157 0 21.335938-4.777344 21.335938-10.667969zm0 0" fill="#b9eaaa"/><path d="m85.667969 192c0-5.890625-14.328125-10.667969-32-10.667969-17.675781 0-32 4.777344-32 10.667969s14.324219 10.667969 32 10.667969c17.671875 0 32-4.777344 32-10.667969zm0 0" fill="#b9eaaa"/><path d="m341.667969 213.332031c0-11.78125-14.328125-21.332031-32-21.332031-17.675781 0-32 9.550781-32 21.332031 0 11.785157 14.324219 21.335938 32 21.335938 17.671875 0 32-9.550781 32-21.335938zm0 0" fill="#86db74"/><path d="m405.667969 181.332031c0-5.890625-9.550781-10.664062-21.335938-10.664062-11.78125 0-21.332031 4.773437-21.332031 10.664062s9.550781 10.667969 21.332031 10.667969c11.785157 0 21.335938-4.777344 21.335938-10.667969zm0 0" fill="#86db74"/><path d="m128.332031 288c0 5.890625-4.773437 10.667969-10.664062 10.667969s-10.667969-4.777344-10.667969-10.667969 4.777344-10.667969 10.667969-10.667969 10.664062 4.777344 10.664062 10.667969zm0 0" fill="#7c534f"/><path d="m192.332031 309.332031c0 5.890625-4.773437 10.667969-10.664062 10.667969s-10.667969-4.777344-10.667969-10.667969 4.777344-10.664062 10.667969-10.664062 10.664062 4.773437 10.664062 10.664062zm0 0" fill="#7c534f"/><path d="m363 288c0 5.890625-4.777344 10.667969-10.667969 10.667969s-10.664062-4.777344-10.664062-10.667969 4.773437-10.667969 10.664062-10.667969 10.667969 4.777344 10.667969 10.667969zm0 0" fill="#653430"/><path d="m405.667969 266.667969c0 5.890625-4.777344 10.664062-10.667969 10.664062s-10.667969-4.773437-10.667969-10.664062 4.777344-10.667969 10.667969-10.667969 10.667969 4.777344 10.667969 10.667969zm0 0" fill="#653430"/><path d="m43 309.332031c0 5.890625-4.777344 10.667969-10.667969 10.667969s-10.664062-4.777344-10.664062-10.667969 4.773437-10.664062 10.664062-10.664062 10.667969 4.773437 10.667969 10.664062zm0 0" fill="#7c534f"/></svg>