<svg height="469pt" viewBox="-64 0 469 469.33341" width="469pt" xmlns="http://www.w3.org/2000/svg"><path d="m258.667969 469.332031h-175.667969c-10.757812 0-19.835938-8.011719-21.167969-18.6875l-40.332031-322.644531v-85.332031h298.667969v85.332031l-40.332031 322.644531c-1.335938 10.675781-10.410157 18.6875-21.167969 18.6875zm0 0" fill="#e8a073"/><path d="m215.835938 450.644531 37.332031-298.664062c.761719-6.074219-1.125-12.179688-5.175781-16.765625-4.046876-4.585938-9.871094-7.214844-15.992188-7.214844h-210.5l40.332031 322.644531c1.332031 10.675781 10.410157 18.6875 21.167969 18.6875h111.667969c10.757812 0 19.832031-8.011719 21.167969-18.6875zm0 0" fill="#f6cbaf"/><path d="m90.667969 168.019531c-1.457031-11.691406-12.121094-19.988281-23.816407-18.527343-11.691406 1.460937-19.984374 12.128906-18.519531 23.820312l8 64.003906c1.335938 10.671875 10.410157 18.683594 21.167969 18.683594 6.117188 0 11.941406-2.628906 15.992188-7.214844 4.050781-4.585937 5.933593-10.691406 5.175781-16.761718zm0 0" fill="#fdf6f1"/><path d="m135.417969 217.167969 39.25-39.25c9.664062-9.664063 25.332031-9.664063 34.996093 0l39.25 39.25c9.667969 9.664062 9.667969 25.332031 0 34.996093l-39.25 39.25c-9.664062 9.667969-25.332031 9.667969-34.996093 0l-39.25-39.25c-9.664063-9.664062-9.664063-25.332031 0-34.996093zm0 0" fill="#fcede3"/><path d="m170.832031 256c-8.625 0-16.402343-5.199219-19.703125-13.167969-3.304687-7.972656-1.480468-17.148437 4.621094-23.25l21.332031-21.332031c8.332031-8.339844 21.84375-8.339844 30.175781-.007812 8.332032 8.332031 8.332032 21.84375-.007812 30.175781l-21.332031 21.332031c-3.996094 4.007812-9.425781 6.257812-15.085938 6.25zm0 0" fill="#fdf6f1"/><path d="m71.417969 281.167969 39.25-39.25c9.664062-9.664063 25.332031-9.664063 34.996093 0l39.25 39.25c9.667969 9.664062 9.667969 25.332031 0 34.996093l-39.25 39.25c-9.664062 9.667969-25.332031 9.667969-34.996093 0l-39.25-39.25c-9.664063-9.664062-9.664063-25.332031 0-34.996093zm0 0" fill="#f9dcc9"/><path d="m298.832031 42.667969v21.332031h-256v-21.332031l15.4375-30.875c3.613281-7.226563 11-11.792969 19.082031-11.792969h186.964844c8.078125 0 15.464844 4.566406 19.078125 11.792969zm0 0" fill="#653430"/><path d="m283.394531 11.792969c-3.613281-7.226563-11-11.792969-19.078125-11.792969h-72.148437c11.785156-.0078125 21.347656 9.546875 21.347656 21.332031 0 11.789063-9.5625 21.34375-21.347656 21.335938v21.332031h106.664062v-21.332031zm0 0" fill="#3e190c"/><path d="m21.5 42.667969h298.667969c11.78125 0 21.332031 9.550781 21.332031 21.332031v42.667969c0 11.78125-9.550781 21.332031-21.332031 21.332031h-298.667969c-11.78125 0-21.332031-9.550781-21.332031-21.332031v-42.667969c0-11.78125 9.550781-21.332031 21.332031-21.332031zm0 0" fill="#7c534f"/><path d="m320.167969 42.667969h-106.667969c11.78125 0 21.332031 9.550781 21.332031 21.332031v42.667969c0 11.78125-9.550781 21.332031-21.332031 21.332031h106.667969c11.78125 0 21.332031-9.550781 21.332031-21.332031v-42.667969c0-11.78125-9.550781-21.332031-21.332031-21.332031zm0 0" fill="#653430"/><path d="m83.152344 429.3125-18.984375-151.980469h213.332031l-19.007812 151.980469c-1.335938 10.675781-10.410157 18.6875-21.171876 18.6875h-133c-10.757812 0-19.835937-8.011719-21.167968-18.6875zm0 0" fill="#3e190c"/><path d="m218.007812 429.3125 18.996094-151.980469h-172.835937l18.984375 151.980469c1.332031 10.675781 10.410156 18.6875 21.167968 18.6875h92.519532c10.757812 0 19.832031-8.011719 21.167968-18.6875zm0 0" fill="#653430"/><path d="m71.417969 281.167969c-4.492188 4.519531-7.058594 10.605469-7.148438 16.976562l.363281 2.914063c.425782 5.675781 2.824219 11.019531 6.785157 15.105468l39.25 39.25c9.664062 9.667969 25.335937 9.667969 34.996093 0l39.25-39.25c9.667969-9.660156 9.667969-25.332031 0-34.996093l-3.832031-3.835938h-105.828125zm0 0" fill="#7c534f"/><path d="m64.167969 42.667969c11.78125 0 21.332031 9.550781 21.332031 21.332031v42.667969c0 11.78125-9.550781 21.332031-21.332031 21.332031-11.785157 0-21.335938-9.550781-21.335938-21.332031v-42.667969c0-11.78125 9.550781-21.332031 21.335938-21.332031zm0 0" fill="#93716e"/><path d="m135.417969 345.167969 39.25-39.25c9.664062-9.664063 25.332031-9.664063 34.996093 0l39.25 39.25c9.667969 9.664062 9.667969 25.332031 0 34.996093l-39.25 39.25c-9.664062 9.667969-25.332031 9.667969-34.996093 0l-39.25-39.25c-9.664063-9.664062-9.664063-25.332031 0-34.996093zm0 0" fill="#93716e"/><g fill="#fdf6f1"><path d="m170.832031 384c-8.625 0-16.402343-5.199219-19.703125-13.167969-3.304687-7.972656-1.480468-17.148437 4.621094-23.25l21.332031-21.332031c8.332031-8.339844 21.84375-8.339844 30.175781-.007812 8.332032 8.332031 8.332032 21.84375-.007812 30.175781l-21.332031 21.332031c-3.996094 4.007812-9.425781 6.257812-15.085938 6.25zm0 0"/><path d="m106.832031 320c-8.625 0-16.402343-5.199219-19.703125-13.167969-3.304687-7.972656-1.480468-17.148437 4.621094-23.25l21.332031-21.332031c8.332031-8.339844 21.84375-8.339844 30.175781-.007812 8.332032 8.332031 8.332032 21.84375-.007812 30.175781l-21.332031 21.332031c-3.996094 4.007812-9.425781 6.257812-15.085938 6.25zm0 0"/></g></svg>