<svg height="426pt" viewBox="0 0 426 426.62978" width="426pt" xmlns="http://www.w3.org/2000/svg"><path d="m1.410156 398.550781 126.867188-355.882812c141.386718 0 256 114.613281 256 256l-355.882813 126.867187c-7.664062 2.554688-16.117187.558594-21.832031-5.152344-5.714844-5.714843-7.707031-14.167968-5.152344-21.832031zm0 0" fill="#e18850"/><path d="m384.277344 320c-23.5625 0-42.664063-19.101562-42.664063-42.667969 0-95.0625-70.84375-176.78125-164.78125-190.082031-9.019531-1.277344-18.113281-1.917969-27.21875-1.917969-23.574219.011719-42.6875-19.09375-42.6875-42.664062 0-23.574219 19.113281-42.6796878 42.6875-42.667969 13.121094-.00390625 26.226563.917969 39.21875 2.761719 135.738281 19.226562 238.113281 137.269531 238.113281 274.570312 0 23.566407-19.105468 42.667969-42.667968 42.667969zm0 0" fill="#f4ba93"/><path d="m405.613281 256c0 11.78125-9.554687 21.332031-21.335937 21.332031s-21.332032-9.550781-21.332032-21.332031 9.550782-21.332031 21.332032-21.332031 21.335937 9.550781 21.335937 21.332031zm0 0" fill="#f9dcc9"/><path d="m278.144531 264.910156c5.421875-2.359375 9.628907-6.851562 11.628907-12.417968 1.996093-5.5625 1.609374-11.707032-1.070313-16.976563-33.886719-67.578125-98.027344-114.894531-172.597656-127.324219l-9.160157-1.523437-20.234374 52.601562-61.132813 171.484375c-6.796875 19.058594 12.375 37.070313 30.972656 29.101563zm0 0" fill="#e8a073"/><path d="m320.277344 277.332031c0 11.785157-9.550782 21.335938-21.332032 21.335938s-21.332031-9.550781-21.332031-21.335938c0-11.78125 9.550781-21.332031 21.332031-21.332031s21.332032 9.550781 21.332032 21.332031zm0 0" fill="#250700"/><path d="m234.945312 149.332031c0 11.785157-9.550781 21.335938-21.332031 21.335938-11.785156 0-21.335937-9.550781-21.335937-21.335938 0-11.78125 9.550781-21.332031 21.335937-21.332031 11.78125 0 21.332031 9.550781 21.332031 21.332031zm0 0" fill="#250700"/><path d="m213.613281 256c0 11.78125-9.554687 21.332031-21.335937 21.332031s-21.332032-9.550781-21.332032-21.332031 9.550782-21.332031 21.332032-21.332031 21.335937 9.550781 21.335937 21.332031zm0 0" fill="#3e190c"/><path d="m358.714844 192c-8.019532.007812-15.367188-4.484375-19.019532-11.625-36.324218-71.554688-109.839843-116.5625-190.082031-116.375-11.785156 0-21.335937-9.550781-21.335937-21.332031 0-11.785157 9.550781-21.335938 21.335937-21.335938 96.28125-.226562 184.492188 53.773438 228.082031 139.625 3.378907 6.613281 3.078126 14.503907-.792968 20.839844-3.875 6.332031-10.761719 10.199219-18.1875 10.203125zm0 0" fill="#f9dcc9"/><path d="m128.277344 213.332031c0 11.785157-9.550782 21.335938-21.332032 21.335938s-21.332031-9.550781-21.332031-21.335938c0-11.78125 9.550781-21.332031 21.332031-21.332031s21.332032 9.550781 21.332032 21.332031zm0 0" fill="#3e190c"/><path d="m170.945312 341.332031c0 11.785157-9.550781 21.335938-21.332031 21.335938-11.785156 0-21.335937-9.550781-21.335937-21.335938 0-11.78125 9.550781-21.332031 21.335937-21.332031 11.78125 0 21.332031 9.550781 21.332031 21.332031zm0 0" fill="#250700"/><path d="m128.277344 298.667969c0 23.5625-19.101563 42.664062-42.664063 42.664062-23.566406 0-42.667969-19.101562-42.667969-42.664062 0-23.566407 19.101563-42.667969 42.667969-42.667969 23.5625 0 42.664063 19.101562 42.664063 42.667969zm0 0" fill="#b80900"/><path d="m106.945312 298.667969c0-22.730469-14.328124-41.160157-32-41.160157-17.671874 0-32 18.429688-32 41.160157s14.328126 41.15625 32 41.15625c17.671876 0 32-18.425781 32-41.15625zm0 0" fill="#e92c24"/><path d="m299.480469 213.332031c0 23.566407-19.101563 42.667969-42.667969 42.667969-23.5625 0-42.667969-19.101562-42.667969-42.667969 0-23.5625 19.105469-42.664062 42.667969-42.664062 23.566406 0 42.667969 19.101562 42.667969 42.664062zm0 0" fill="#b80900"/><path d="m278.144531 213.332031c0-22.730469-14.324219-41.15625-32-41.15625-17.671875 0-32 18.425781-32 41.15625s14.328125 41.160157 32 41.160157c17.675781 0 32-18.429688 32-41.160157zm0 0" fill="#e92c24"/><path d="m192.277344 170.667969c0 23.5625-19.101563 42.664062-42.664063 42.664062-23.566406 0-42.667969-19.101562-42.667969-42.664062 0-23.566407 19.101563-42.667969 42.667969-42.667969 23.5625 0 42.664063 19.101562 42.664063 42.667969zm0 0" fill="#b80900"/><path d="m170.945312 170.667969c0-22.730469-14.328124-41.160157-32-41.160157-17.671874 0-32 18.429688-32 41.160157s14.328126 41.15625 32 41.15625c17.671876 0 32-18.425781 32-41.15625zm0 0" fill="#e92c24"/></svg>