<svg height="469pt" viewBox="-67 0 469 469.33334" width="469pt" xmlns="http://www.w3.org/2000/svg"><path d="m255.773438 469.332031h-176.089844c-10.671875 0-19.699219-7.878906-21.140625-18.449219l-58.179688-426.667968c-.832031-6.101563 1.015625-12.269532 5.066407-16.910156 4.050781-4.640626 9.910156-7.304688 16.070312-7.304688h292.453125c6.160156 0 12.019531 2.664062 16.070313 7.304688 4.054687 4.640624 5.898437 10.808593 5.066406 16.910156l-58.179688 426.667968c-1.441406 10.570313-10.46875 18.449219-21.136718 18.449219zm0 0" fill="#e8a073"/><path d="m194.679688 450.882812 58.179687-426.667968c.832031-6.105469-1.011719-12.269532-5.066406-16.910156-4.050781-4.640626-9.910157-7.304688-16.070313-7.304688h-210.222656c-6.160156 0-12.019531 2.664062-16.070312 7.304688-4.050782 4.640624-5.898438 10.804687-5.066407 16.910156l58.179688 426.667968c1.441406 10.570313 10.46875 18.449219 21.136719 18.449219h93.863281c10.667969 0 19.695312-7.878906 21.136719-18.449219zm0 0" fill="#f6cbaf"/><path d="m79.753906 408.347656-40.027344-280.347656h256l-40.070312 280.351562c-1.503906 10.507813-10.503906 18.316407-21.121094 18.316407h-133.660156c-10.617188 0-19.621094-7.808594-21.121094-18.320313zm0 0" fill="#f9dcc9"/><path d="m100.875 426.667969h78.484375c10.667969 0 19.695313-7.882813 21.136719-18.453125l38.210937-280.214844h-198.980469l40.027344 280.347656c1.5 10.511719 10.503906 18.320313 21.121094 18.320313zm0 0" fill="#fcede3"/><g fill="#fdf6f1"><path d="m85.394531 85.332031c-10.601562-.015625-19.582031-7.816406-21.085937-18.3125l-3.050782-21.332031c-1.667968-11.660156 6.433594-22.46875 18.09375-24.136719 11.660157-1.667969 22.46875 6.433594 24.136719 18.09375l3.050781 21.335938c.804688 5.597656-.648437 11.289062-4.042968 15.816406-3.394532 4.527344-8.449219 7.519531-14.050782 8.316406-1.011718.144531-2.03125.21875-3.050781.21875zm0 0"/><path d="m125.027344 362.667969c-10.601563-.019531-19.582032-7.820313-21.082032-18.3125l-21.355468-149.40625c-1.667969-11.664063 6.433594-22.46875 18.09375-24.136719 11.664062-1.667969 22.46875 6.433594 24.136718 18.09375l21.355469 149.40625c1.667969 11.660156-6.433593 22.464844-18.09375 24.136719-1.011719.144531-2.03125.21875-3.054687.21875zm0 0"/></g></svg>